<svg xmlns="http://www.w3.org/2000/svg" style="cursor: move;" width="1726" height="1039"><g transform="translate(-42.75322977402243,-22.076213192404282) scale(1.0777331450436771)"><path class="link" style="stroke-width: 0.5px; stroke-opacity: 0.35; stroke: rgb(80, 80, 80); fill: none;" marker-end="url(#arrow)" d="M703,469.5C793,469.5 793,489.5 883,489.5"></path><path class="link" style="stroke-width: 0.5px; stroke-opacity: 0.35; stroke: rgb(80, 80, 80); fill: none;" marker-end="url(#arrow)" d="M703,469.5C793,469.5 793,529.5 883,529.5"></path><path class="link" style="stroke-width: 0.5px; stroke-opacity: 0.35; stroke: rgb(80, 80, 80); fill: none;" marker-end="url(#arrow)" d="M703,469.5C793,469.5 793,569.5 883,569.5"></path><path class="link" style="stroke-width: 0.5px; stroke-opacity: 0.35; stroke: rgb(80, 80, 80); fill: none;" marker-end="url(#arrow)" d="M703,509.5C793,509.5 793,489.5 883,489.5"></path><path class="link" style="stroke-width: 0.5px; stroke-opacity: 0.35; stroke: rgb(80, 80, 80); fill: none;" marker-end="url(#arrow)" d="M703,509.5C793,509.5 793,529.5 883,529.5"></path><path class="link" style="stroke-width: 0.5px; stroke-opacity: 0.35; stroke: rgb(80, 80, 80); fill: none;" marker-end="url(#arrow)" d="M703,509.5C793,509.5 793,569.5 883,569.5"></path><path class="link" style="stroke-width: 0.5px; stroke-opacity: 0.35; stroke: rgb(80, 80, 80); fill: none;" marker-end="url(#arrow)" d="M703,549.5C793,549.5 793,489.5 883,489.5"></path><path class="link" style="stroke-width: 0.5px; stroke-opacity: 0.35; stroke: rgb(80, 80, 80); fill: none;" marker-end="url(#arrow)" d="M703,549.5C793,549.5 793,529.5 883,529.5"></path><path class="link" style="stroke-width: 0.5px; stroke-opacity: 0.35; stroke: rgb(80, 80, 80); fill: none;" marker-end="url(#arrow)" d="M703,549.5C793,549.5 793,569.5 883,569.5"></path><path class="link" style="stroke-width: 0.5px; stroke-opacity: 0.35; stroke: rgb(80, 80, 80); fill: none;" marker-end="url(#arrow)" d="M883,449.5C973,449.5 973,509.5 1063,509.5"></path><path class="link" style="stroke-width: 0.5px; stroke-opacity: 0.35; stroke: rgb(80, 80, 80); fill: none;" marker-end="url(#arrow)" d="M883,489.5C973,489.5 973,509.5 1063,509.5"></path><path class="link" style="stroke-width: 0.5px; stroke-opacity: 0.35; stroke: rgb(80, 80, 80); fill: none;" marker-end="url(#arrow)" d="M883,529.5C973,529.5 973,509.5 1063,509.5"></path><path class="link" style="stroke-width: 0.5px; stroke-opacity: 0.35; stroke: rgb(80, 80, 80); fill: none;" marker-end="url(#arrow)" d="M883,569.5C973,569.5 973,509.5 1063,509.5"></path><circle r="10" class="node" id="0_0" style="fill: rgb(255, 255, 255); stroke: rgb(51, 51, 51);" cx="703" cy="469.5"></circle><circle r="10" class="node" id="0_1" style="fill: rgb(255, 255, 255); stroke: rgb(51, 51, 51);" cx="703" cy="509.5"></circle><circle r="10" class="node" id="0_2" style="fill: rgb(255, 255, 255); stroke: rgb(51, 51, 51);" cx="703" cy="549.5"></circle><circle r="10" class="node" id="1_0" style="fill: rgb(255, 255, 255); stroke: rgb(51, 51, 51);" cx="883" cy="449.5"></circle><circle r="10" class="node" id="1_1" style="fill: rgb(255, 255, 255); stroke: rgb(51, 51, 51);" cx="883" cy="489.5"></circle><circle r="10" class="node" id="1_2" style="fill: rgb(255, 255, 255); stroke: rgb(51, 51, 51);" cx="883" cy="529.5"></circle><circle r="10" class="node" id="1_3" style="fill: rgb(255, 255, 255); stroke: rgb(51, 51, 51);" cx="883" cy="569.5"></circle><circle r="10" class="node" id="2_0" style="fill: rgb(255, 255, 255); stroke: rgb(51, 51, 51);" cx="1063" cy="509.5"></circle><text class="text" dy=".35em" style="font-size: 12px;" x="668" y="609.5">Input Layer ∈ ℝ³</text><text class="text" dy=".35em" style="font-size: 12px;" x="848" y="609.5">Hidden Layer ∈ ℝ⁴</text><text class="text" dy=".35em" style="font-size: 12px;" x="1028" y="609.5">Output Layer ∈ ℝ¹</text></g><defs><marker id="arrow" viewBox="0 -5 10 10" markerWidth="7" markerHeight="7" orient="auto" refX="40"><path d="M0,-5L10,0L0,5" style="stroke: rgb(80, 80, 80); fill: none;"></path></marker></defs></svg>