<svg xmlns="http://www.w3.org/2000/svg" style="cursor: move;" width="1760" height="999"><g transform="translate(-774.9672121633084,-313.90905126512587) scale(1.626758396264269)"><path class="link" style="stroke-width: 0.5px; stroke-opacity: 1; stroke: rgb(80, 80, 80); fill: none;" marker-end="" d="M560,409.5, 740,349.5"></path><path class="link" style="stroke-width: 0.5px; stroke-opacity: 1; stroke: rgb(80, 80, 80); fill: none;" marker-end="" d="M560,409.5, 740,389.5"></path><path class="link" style="stroke-width: 0.5px; stroke-opacity: 1; stroke: rgb(80, 80, 80); fill: none;" marker-end="" d="M560,409.5, 740,429.5"></path><path class="link" style="stroke-width: 0.5px; stroke-opacity: 1; stroke: rgb(80, 80, 80); fill: none;" marker-end="" d="M560,409.5, 740,469.5"></path><path class="link" style="stroke-width: 0.5px; stroke-opacity: 1; stroke: rgb(80, 80, 80); fill: none;" marker-end="" d="M560,409.5, 740,509.5"></path><path class="link" style="stroke-width: 0.5px; stroke-opacity: 1; stroke: rgb(80, 80, 80); fill: none;" marker-end="" d="M560,409.5, 740,549.5"></path><path class="link" style="stroke-width: 0.5px; stroke-opacity: 1; stroke: rgb(80, 80, 80); fill: none;" marker-end="" d="M560,409.5, 740,589.5"></path><path class="link" style="stroke-width: 0.5px; stroke-opacity: 1; stroke: rgb(80, 80, 80); fill: none;" marker-end="" d="M560,409.5, 740,629.5"></path><path class="link" style="stroke-width: 0.5px; stroke-opacity: 1; stroke: rgb(80, 80, 80); fill: none;" marker-end="" d="M560,449.5, 740,349.5"></path><path class="link" style="stroke-width: 0.5px; stroke-opacity: 1; stroke: rgb(80, 80, 80); fill: none;" marker-end="" d="M560,449.5, 740,389.5"></path><path class="link" style="stroke-width: 0.5px; stroke-opacity: 1; stroke: rgb(80, 80, 80); fill: none;" marker-end="" d="M560,449.5, 740,429.5"></path><path class="link" style="stroke-width: 0.5px; stroke-opacity: 1; stroke: rgb(80, 80, 80); fill: none;" marker-end="" d="M560,449.5, 740,469.5"></path><path class="link" style="stroke-width: 0.5px; stroke-opacity: 1; stroke: rgb(80, 80, 80); fill: none;" marker-end="" d="M560,449.5, 740,509.5"></path><path class="link" style="stroke-width: 0.5px; stroke-opacity: 1; stroke: rgb(80, 80, 80); fill: none;" marker-end="" d="M560,449.5, 740,549.5"></path><path class="link" style="stroke-width: 0.5px; stroke-opacity: 1; stroke: rgb(80, 80, 80); fill: none;" marker-end="" d="M560,449.5, 740,589.5"></path><path class="link" style="stroke-width: 0.5px; stroke-opacity: 1; stroke: rgb(80, 80, 80); fill: none;" marker-end="" d="M560,449.5, 740,629.5"></path><path class="link" style="stroke-width: 0.5px; stroke-opacity: 1; stroke: rgb(80, 80, 80); fill: none;" marker-end="" d="M560,489.5, 740,349.5"></path><path class="link" style="stroke-width: 0.5px; stroke-opacity: 1; stroke: rgb(80, 80, 80); fill: none;" marker-end="" d="M560,489.5, 740,389.5"></path><path class="link" style="stroke-width: 0.5px; stroke-opacity: 1; stroke: rgb(80, 80, 80); fill: none;" marker-end="" d="M560,489.5, 740,429.5"></path><path class="link" style="stroke-width: 0.5px; stroke-opacity: 1; stroke: rgb(80, 80, 80); fill: none;" marker-end="" d="M560,489.5, 740,469.5"></path><path class="link" style="stroke-width: 0.5px; stroke-opacity: 1; stroke: rgb(80, 80, 80); fill: none;" marker-end="" d="M560,489.5, 740,509.5"></path><path class="link" style="stroke-width: 0.5px; stroke-opacity: 1; stroke: rgb(80, 80, 80); fill: none;" marker-end="" d="M560,489.5, 740,549.5"></path><path class="link" style="stroke-width: 0.5px; stroke-opacity: 1; stroke: rgb(80, 80, 80); fill: none;" marker-end="" d="M560,489.5, 740,589.5"></path><path class="link" style="stroke-width: 0.5px; stroke-opacity: 1; stroke: rgb(80, 80, 80); fill: none;" marker-end="" d="M560,489.5, 740,629.5"></path><path class="link" style="stroke-width: 0.5px; stroke-opacity: 1; stroke: rgb(80, 80, 80); fill: none;" marker-end="" d="M560,529.5, 740,349.5"></path><path class="link" style="stroke-width: 0.5px; stroke-opacity: 1; stroke: rgb(80, 80, 80); fill: none;" marker-end="" d="M560,529.5, 740,389.5"></path><path class="link" style="stroke-width: 0.5px; stroke-opacity: 1; stroke: rgb(80, 80, 80); fill: none;" marker-end="" d="M560,529.5, 740,429.5"></path><path class="link" style="stroke-width: 0.5px; stroke-opacity: 1; stroke: rgb(80, 80, 80); fill: none;" marker-end="" d="M560,529.5, 740,469.5"></path><path class="link" style="stroke-width: 0.5px; stroke-opacity: 1; stroke: rgb(80, 80, 80); fill: none;" marker-end="" d="M560,529.5, 740,509.5"></path><path class="link" style="stroke-width: 0.5px; stroke-opacity: 1; stroke: rgb(80, 80, 80); fill: none;" marker-end="" d="M560,529.5, 740,549.5"></path><path class="link" style="stroke-width: 0.5px; stroke-opacity: 1; stroke: rgb(80, 80, 80); fill: none;" marker-end="" d="M560,529.5, 740,589.5"></path><path class="link" style="stroke-width: 0.5px; stroke-opacity: 1; stroke: rgb(80, 80, 80); fill: none;" marker-end="" d="M560,529.5, 740,629.5"></path><path class="link" style="stroke-width: 0.5px; stroke-opacity: 1; stroke: rgb(80, 80, 80); fill: none;" marker-end="" d="M560,569.5, 740,349.5"></path><path class="link" style="stroke-width: 0.5px; stroke-opacity: 1; stroke: rgb(80, 80, 80); fill: none;" marker-end="" d="M560,569.5, 740,389.5"></path><path class="link" style="stroke-width: 0.5px; stroke-opacity: 1; stroke: rgb(80, 80, 80); fill: none;" marker-end="" d="M560,569.5, 740,429.5"></path><path class="link" style="stroke-width: 0.5px; stroke-opacity: 1; stroke: rgb(80, 80, 80); fill: none;" marker-end="" d="M560,569.5, 740,469.5"></path><path class="link" style="stroke-width: 0.5px; stroke-opacity: 1; stroke: rgb(80, 80, 80); fill: none;" marker-end="" d="M560,569.5, 740,509.5"></path><path class="link" style="stroke-width: 0.5px; stroke-opacity: 1; stroke: rgb(80, 80, 80); fill: none;" marker-end="" d="M560,569.5, 740,549.5"></path><path class="link" style="stroke-width: 0.5px; stroke-opacity: 1; stroke: rgb(80, 80, 80); fill: none;" marker-end="" d="M560,569.5, 740,589.5"></path><path class="link" style="stroke-width: 0.5px; stroke-opacity: 1; stroke: rgb(80, 80, 80); fill: none;" marker-end="" d="M560,569.5, 740,629.5"></path><path class="link" style="stroke-width: 0.5px; stroke-opacity: 1; stroke: rgb(80, 80, 80); fill: none;" marker-end="" d="M740,349.5, 920,349.5"></path><path class="link" style="stroke-width: 0.5px; stroke-opacity: 1; stroke: rgb(80, 80, 80); fill: none;" marker-end="" d="M740,349.5, 920,389.5"></path><path class="link" style="stroke-width: 0.5px; stroke-opacity: 1; stroke: rgb(80, 80, 80); fill: none;" marker-end="" d="M740,349.5, 920,429.5"></path><path class="link" style="stroke-width: 0.5px; stroke-opacity: 1; stroke: rgb(80, 80, 80); fill: none;" marker-end="" d="M740,349.5, 920,469.5"></path><path class="link" style="stroke-width: 0.5px; stroke-opacity: 1; stroke: rgb(80, 80, 80); fill: none;" marker-end="" d="M740,349.5, 920,509.5"></path><path class="link" style="stroke-width: 0.5px; stroke-opacity: 1; stroke: rgb(80, 80, 80); fill: none;" marker-end="" d="M740,349.5, 920,549.5"></path><path class="link" style="stroke-width: 0.5px; stroke-opacity: 1; stroke: rgb(80, 80, 80); fill: none;" marker-end="" d="M740,389.5, 920,349.5"></path><path class="link" style="stroke-width: 0.5px; stroke-opacity: 1; stroke: rgb(80, 80, 80); fill: none;" marker-end="" d="M740,389.5, 920,389.5"></path><path class="link" style="stroke-width: 0.5px; stroke-opacity: 1; stroke: rgb(80, 80, 80); fill: none;" marker-end="" d="M740,389.5, 920,429.5"></path><path class="link" style="stroke-width: 0.5px; stroke-opacity: 1; stroke: rgb(80, 80, 80); fill: none;" marker-end="" d="M740,389.5, 920,469.5"></path><path class="link" style="stroke-width: 0.5px; stroke-opacity: 1; stroke: rgb(80, 80, 80); fill: none;" marker-end="" d="M740,389.5, 920,509.5"></path><path class="link" style="stroke-width: 0.5px; stroke-opacity: 1; stroke: rgb(80, 80, 80); fill: none;" marker-end="" d="M740,389.5, 920,549.5"></path><path class="link" style="stroke-width: 0.5px; stroke-opacity: 1; stroke: rgb(80, 80, 80); fill: none;" marker-end="" d="M740,429.5, 920,349.5"></path><path class="link" style="stroke-width: 0.5px; stroke-opacity: 1; stroke: rgb(80, 80, 80); fill: none;" marker-end="" d="M740,429.5, 920,389.5"></path><path class="link" style="stroke-width: 0.5px; stroke-opacity: 1; stroke: rgb(80, 80, 80); fill: none;" marker-end="" d="M740,429.5, 920,429.5"></path><path class="link" style="stroke-width: 0.5px; stroke-opacity: 1; stroke: rgb(80, 80, 80); fill: none;" marker-end="" d="M740,429.5, 920,469.5"></path><path class="link" style="stroke-width: 0.5px; stroke-opacity: 1; stroke: rgb(80, 80, 80); fill: none;" marker-end="" d="M740,429.5, 920,509.5"></path><path class="link" style="stroke-width: 0.5px; stroke-opacity: 1; stroke: rgb(80, 80, 80); fill: none;" marker-end="" d="M740,429.5, 920,549.5"></path><path class="link" style="stroke-width: 0.5px; stroke-opacity: 1; stroke: rgb(80, 80, 80); fill: none;" marker-end="" d="M740,469.5, 920,349.5"></path><path class="link" style="stroke-width: 0.5px; stroke-opacity: 1; stroke: rgb(80, 80, 80); fill: none;" marker-end="" d="M740,469.5, 920,389.5"></path><path class="link" style="stroke-width: 0.5px; stroke-opacity: 1; stroke: rgb(80, 80, 80); fill: none;" marker-end="" d="M740,469.5, 920,429.5"></path><path class="link" style="stroke-width: 0.5px; stroke-opacity: 1; stroke: rgb(80, 80, 80); fill: none;" marker-end="" d="M740,469.5, 920,469.5"></path><path class="link" style="stroke-width: 0.5px; stroke-opacity: 1; stroke: rgb(80, 80, 80); fill: none;" marker-end="" d="M740,469.5, 920,509.5"></path><path class="link" style="stroke-width: 0.5px; stroke-opacity: 1; stroke: rgb(80, 80, 80); fill: none;" marker-end="" d="M740,469.5, 920,549.5"></path><path class="link" style="stroke-width: 0.5px; stroke-opacity: 1; stroke: rgb(80, 80, 80); fill: none;" marker-end="" d="M740,509.5, 920,349.5"></path><path class="link" style="stroke-width: 0.5px; stroke-opacity: 1; stroke: rgb(80, 80, 80); fill: none;" marker-end="" d="M740,509.5, 920,389.5"></path><path class="link" style="stroke-width: 0.5px; stroke-opacity: 1; stroke: rgb(80, 80, 80); fill: none;" marker-end="" d="M740,509.5, 920,429.5"></path><path class="link" style="stroke-width: 0.5px; stroke-opacity: 1; stroke: rgb(80, 80, 80); fill: none;" marker-end="" d="M740,509.5, 920,469.5"></path><path class="link" style="stroke-width: 0.5px; stroke-opacity: 1; stroke: rgb(80, 80, 80); fill: none;" marker-end="" d="M740,509.5, 920,509.5"></path><path class="link" style="stroke-width: 0.5px; stroke-opacity: 1; stroke: rgb(80, 80, 80); fill: none;" marker-end="" d="M740,509.5, 920,549.5"></path><path class="link" style="stroke-width: 0.5px; stroke-opacity: 1; stroke: rgb(80, 80, 80); fill: none;" marker-end="" d="M740,549.5, 920,349.5"></path><path class="link" style="stroke-width: 0.5px; stroke-opacity: 1; stroke: rgb(80, 80, 80); fill: none;" marker-end="" d="M740,549.5, 920,389.5"></path><path class="link" style="stroke-width: 0.5px; stroke-opacity: 1; stroke: rgb(80, 80, 80); fill: none;" marker-end="" d="M740,549.5, 920,429.5"></path><path class="link" style="stroke-width: 0.5px; stroke-opacity: 1; stroke: rgb(80, 80, 80); fill: none;" marker-end="" d="M740,549.5, 920,469.5"></path><path class="link" style="stroke-width: 0.5px; stroke-opacity: 1; stroke: rgb(80, 80, 80); fill: none;" marker-end="" d="M740,549.5, 920,509.5"></path><path class="link" style="stroke-width: 0.5px; stroke-opacity: 1; stroke: rgb(80, 80, 80); fill: none;" marker-end="" d="M740,549.5, 920,549.5"></path><path class="link" style="stroke-width: 0.5px; stroke-opacity: 1; stroke: rgb(80, 80, 80); fill: none;" marker-end="" d="M740,589.5, 920,349.5"></path><path class="link" style="stroke-width: 0.5px; stroke-opacity: 1; stroke: rgb(80, 80, 80); fill: none;" marker-end="" d="M740,589.5, 920,389.5"></path><path class="link" style="stroke-width: 0.5px; stroke-opacity: 1; stroke: rgb(80, 80, 80); fill: none;" marker-end="" d="M740,589.5, 920,429.5"></path><path class="link" style="stroke-width: 0.5px; stroke-opacity: 1; stroke: rgb(80, 80, 80); fill: none;" marker-end="" d="M740,589.5, 920,469.5"></path><path class="link" style="stroke-width: 0.5px; stroke-opacity: 1; stroke: rgb(80, 80, 80); fill: none;" marker-end="" d="M740,589.5, 920,509.5"></path><path class="link" style="stroke-width: 0.5px; stroke-opacity: 1; stroke: rgb(80, 80, 80); fill: none;" marker-end="" d="M740,589.5, 920,549.5"></path><path class="link" style="stroke-width: 0.5px; stroke-opacity: 1; stroke: rgb(80, 80, 80); fill: none;" marker-end="" d="M740,629.5, 920,349.5"></path><path class="link" style="stroke-width: 0.5px; stroke-opacity: 1; stroke: rgb(80, 80, 80); fill: none;" marker-end="" d="M740,629.5, 920,389.5"></path><path class="link" style="stroke-width: 0.5px; stroke-opacity: 1; stroke: rgb(80, 80, 80); fill: none;" marker-end="" d="M740,629.5, 920,429.5"></path><path class="link" style="stroke-width: 0.5px; stroke-opacity: 1; stroke: rgb(80, 80, 80); fill: none;" marker-end="" d="M740,629.5, 920,469.5"></path><path class="link" style="stroke-width: 0.5px; stroke-opacity: 1; stroke: rgb(80, 80, 80); fill: none;" marker-end="" d="M740,629.5, 920,509.5"></path><path class="link" style="stroke-width: 0.5px; stroke-opacity: 1; stroke: rgb(80, 80, 80); fill: none;" marker-end="" d="M740,629.5, 920,549.5"></path><path class="link" style="stroke-width: 0.5px; stroke-opacity: 1; stroke: rgb(80, 80, 80); fill: none;" marker-end="" d="M920,349.5, 1100,349.5"></path><path class="link" style="stroke-width: 0.5px; stroke-opacity: 1; stroke: rgb(80, 80, 80); fill: none;" marker-end="" d="M920,389.5, 1100,349.5"></path><path class="link" style="stroke-width: 0.5px; stroke-opacity: 1; stroke: rgb(80, 80, 80); fill: none;" marker-end="" d="M920,429.5, 1100,349.5"></path><path class="link" style="stroke-width: 0.5px; stroke-opacity: 1; stroke: rgb(80, 80, 80); fill: none;" marker-end="" d="M920,469.5, 1100,349.5"></path><path class="link" style="stroke-width: 0.5px; stroke-opacity: 1; stroke: rgb(80, 80, 80); fill: none;" marker-end="" d="M920,509.5, 1100,349.5"></path><path class="link" style="stroke-width: 0.5px; stroke-opacity: 1; stroke: rgb(80, 80, 80); fill: none;" marker-end="" d="M920,549.5, 1100,349.5"></path><path class="link" style="stroke-width: 0.5px; stroke-opacity: 1; stroke: rgb(80, 80, 80); fill: none;" marker-end="" d="M1100,349.5, 1280,429.5"></path><path class="link" style="stroke-width: 0.5px; stroke-opacity: 1; stroke: rgb(80, 80, 80); fill: none;" marker-end="" d="M920,349.5, 1100,389.5"></path><path class="link" style="stroke-width: 0.5px; stroke-opacity: 1; stroke: rgb(80, 80, 80); fill: none;" marker-end="" d="M920,389.5, 1100,389.5"></path><path class="link" style="stroke-width: 0.5px; stroke-opacity: 1; stroke: rgb(80, 80, 80); fill: none;" marker-end="" d="M920,429.5, 1100,389.5"></path><path class="link" style="stroke-width: 0.5px; stroke-opacity: 1; stroke: rgb(80, 80, 80); fill: none;" marker-end="" d="M920,469.5, 1100,389.5"></path><path class="link" style="stroke-width: 0.5px; stroke-opacity: 1; stroke: rgb(80, 80, 80); fill: none;" marker-end="" d="M920,509.5, 1100,389.5"></path><path class="link" style="stroke-width: 0.5px; stroke-opacity: 1; stroke: rgb(80, 80, 80); fill: none;" marker-end="" d="M920,549.5, 1100,389.5"></path><path class="link" style="stroke-width: 0.5px; stroke-opacity: 1; stroke: rgb(80, 80, 80); fill: none;" marker-end="" d="M1100,389.5, 1280,429.5"></path><path class="link" style="stroke-width: 0.5px; stroke-opacity: 1; stroke: rgb(80, 80, 80); fill: none;" marker-end="" d="M920,349.5, 1100,429.5"></path><path class="link" style="stroke-width: 0.5px; stroke-opacity: 1; stroke: rgb(80, 80, 80); fill: none;" marker-end="" d="M920,389.5, 1100,429.5"></path><path class="link" style="stroke-width: 0.5px; stroke-opacity: 1; stroke: rgb(80, 80, 80); fill: none;" marker-end="" d="M920,429.5, 1100,429.5"></path><path class="link" style="stroke-width: 0.5px; stroke-opacity: 1; stroke: rgb(80, 80, 80); fill: none;" marker-end="" d="M920,469.5, 1100,429.5"></path><path class="link" style="stroke-width: 0.5px; stroke-opacity: 1; stroke: rgb(80, 80, 80); fill: none;" marker-end="" d="M920,509.5, 1100,429.5"></path><path class="link" style="stroke-width: 0.5px; stroke-opacity: 1; stroke: rgb(80, 80, 80); fill: none;" marker-end="" d="M920,549.5, 1100,429.5"></path><path class="link" style="stroke-width: 0.5px; stroke-opacity: 1; stroke: rgb(80, 80, 80); fill: none;" marker-end="" d="M1100,429.5, 1280,429.5"></path><path class="link" style="stroke-width: 0.5px; stroke-opacity: 1; stroke: rgb(80, 80, 80); fill: none;" marker-end="" d="M920,349.5, 1100,469.5"></path><path class="link" style="stroke-width: 0.5px; stroke-opacity: 1; stroke: rgb(80, 80, 80); fill: none;" marker-end="" d="M920,389.5, 1100,469.5"></path><path class="link" style="stroke-width: 0.5px; stroke-opacity: 1; stroke: rgb(80, 80, 80); fill: none;" marker-end="" d="M920,429.5, 1100,469.5"></path><path class="link" style="stroke-width: 0.5px; stroke-opacity: 1; stroke: rgb(80, 80, 80); fill: none;" marker-end="" d="M920,469.5, 1100,469.5"></path><path class="link" style="stroke-width: 0.5px; stroke-opacity: 1; stroke: rgb(80, 80, 80); fill: none;" marker-end="" d="M920,509.5, 1100,469.5"></path><path class="link" style="stroke-width: 0.5px; stroke-opacity: 1; stroke: rgb(80, 80, 80); fill: none;" marker-end="" d="M920,549.5, 1100,469.5"></path><path class="link" style="stroke-width: 0.5px; stroke-opacity: 1; stroke: rgb(80, 80, 80); fill: none;" marker-end="" d="M1100,469.5, 1280,429.5"></path><path class="link" style="stroke-width: 0.5px; stroke-opacity: 1; stroke: rgb(80, 80, 80); fill: none;" marker-end="" d="M920,349.5, 1100,509.5"></path><path class="link" style="stroke-width: 0.5px; stroke-opacity: 1; stroke: rgb(80, 80, 80); fill: none;" marker-end="" d="M920,389.5, 1100,509.5"></path><path class="link" style="stroke-width: 0.5px; stroke-opacity: 1; stroke: rgb(80, 80, 80); fill: none;" marker-end="" d="M920,429.5, 1100,509.5"></path><path class="link" style="stroke-width: 0.5px; stroke-opacity: 1; stroke: rgb(80, 80, 80); fill: none;" marker-end="" d="M920,469.5, 1100,509.5"></path><path class="link" style="stroke-width: 0.5px; stroke-opacity: 1; stroke: rgb(80, 80, 80); fill: none;" marker-end="" d="M920,509.5, 1100,509.5"></path><path class="link" style="stroke-width: 0.5px; stroke-opacity: 1; stroke: rgb(80, 80, 80); fill: none;" marker-end="" d="M920,549.5, 1100,509.5"></path><path class="link" style="stroke-width: 0.5px; stroke-opacity: 1; stroke: rgb(80, 80, 80); fill: none;" marker-end="" d="M1100,509.5, 1280,429.5"></path><path class="link" style="stroke-width: 0.5px; stroke-opacity: 1; stroke: rgb(80, 80, 80); fill: none;" marker-end="" d="M920,349.5, 1100,549.5"></path><path class="link" style="stroke-width: 0.5px; stroke-opacity: 1; stroke: rgb(80, 80, 80); fill: none;" marker-end="" d="M920,389.5, 1100,549.5"></path><path class="link" style="stroke-width: 0.5px; stroke-opacity: 1; stroke: rgb(80, 80, 80); fill: none;" marker-end="" d="M920,429.5, 1100,549.5"></path><path class="link" style="stroke-width: 0.5px; stroke-opacity: 1; stroke: rgb(80, 80, 80); fill: none;" marker-end="" d="M920,469.5, 1100,549.5"></path><path class="link" style="stroke-width: 0.5px; stroke-opacity: 1; stroke: rgb(80, 80, 80); fill: none;" marker-end="" d="M920,509.5, 1100,549.5"></path><path class="link" style="stroke-width: 0.5px; stroke-opacity: 1; stroke: rgb(80, 80, 80); fill: none;" marker-end="" d="M920,549.5, 1100,549.5"></path><path class="link" style="stroke-width: 0.5px; stroke-opacity: 1; stroke: rgb(80, 80, 80); fill: none;" marker-end="" d="M1100,549.5, 1280,429.5"></path><path class="link" style="stroke-width: 0.5px; stroke-opacity: 1; stroke: rgb(80, 80, 80); fill: none;" marker-end="" d="M920,349.5, 1100,589.5"></path><path class="link" style="stroke-width: 0.5px; stroke-opacity: 1; stroke: rgb(80, 80, 80); fill: none;" marker-end="" d="M920,389.5, 1100,589.5"></path><path class="link" style="stroke-width: 0.5px; stroke-opacity: 1; stroke: rgb(80, 80, 80); fill: none;" marker-end="" d="M920,429.5, 1100,589.5"></path><path class="link" style="stroke-width: 0.5px; stroke-opacity: 1; stroke: rgb(80, 80, 80); fill: none;" marker-end="" d="M920,469.5, 1100,589.5"></path><path class="link" style="stroke-width: 0.5px; stroke-opacity: 1; stroke: rgb(80, 80, 80); fill: none;" marker-end="" d="M920,509.5, 1100,589.5"></path><path class="link" style="stroke-width: 0.5px; stroke-opacity: 1; stroke: rgb(80, 80, 80); fill: none;" marker-end="" d="M920,549.5, 1100,589.5"></path><path class="link" style="stroke-width: 0.5px; stroke-opacity: 1; stroke: rgb(80, 80, 80); fill: none;" marker-end="" d="M1100,589.5, 1280,429.5"></path><path class="link" style="stroke-width: 0.5px; stroke-opacity: 1; stroke: rgb(80, 80, 80); fill: none;" marker-end="" d="M740,349.5, 920,589.5"></path><path class="link" style="stroke-width: 0.5px; stroke-opacity: 1; stroke: rgb(80, 80, 80); fill: none;" marker-end="" d="M740,389.5, 920,589.5"></path><path class="link" style="stroke-width: 0.5px; stroke-opacity: 1; stroke: rgb(80, 80, 80); fill: none;" marker-end="" d="M740,429.5, 920,589.5"></path><path class="link" style="stroke-width: 0.5px; stroke-opacity: 1; stroke: rgb(80, 80, 80); fill: none;" marker-end="" d="M740,469.5, 920,589.5"></path><path class="link" style="stroke-width: 0.5px; stroke-opacity: 1; stroke: rgb(80, 80, 80); fill: none;" marker-end="" d="M740,509.5, 920,589.5"></path><path class="link" style="stroke-width: 0.5px; stroke-opacity: 1; stroke: rgb(80, 80, 80); fill: none;" marker-end="" d="M740,549.5, 920,589.5"></path><path class="link" style="stroke-width: 0.5px; stroke-opacity: 1; stroke: rgb(80, 80, 80); fill: none;" marker-end="" d="M740,589.5, 920,589.5"></path><path class="link" style="stroke-width: 0.5px; stroke-opacity: 1; stroke: rgb(80, 80, 80); fill: none;" marker-end="" d="M740,629.5, 920,589.5"></path><path class="link" style="stroke-width: 0.5px; stroke-opacity: 1; stroke: rgb(80, 80, 80); fill: none;" marker-end="" d="M920,589.5, 1100,349.5"></path><path class="link" style="stroke-width: 0.5px; stroke-opacity: 1; stroke: rgb(80, 80, 80); fill: none;" marker-end="" d="M920,589.5, 1100,389.5"></path><path class="link" style="stroke-width: 0.5px; stroke-opacity: 1; stroke: rgb(80, 80, 80); fill: none;" marker-end="" d="M920,589.5, 1100,429.5"></path><path class="link" style="stroke-width: 0.5px; stroke-opacity: 1; stroke: rgb(80, 80, 80); fill: none;" marker-end="" d="M920,589.5, 1100,469.5"></path><path class="link" style="stroke-width: 0.5px; stroke-opacity: 1; stroke: rgb(80, 80, 80); fill: none;" marker-end="" d="M920,589.5, 1100,509.5"></path><path class="link" style="stroke-width: 0.5px; stroke-opacity: 1; stroke: rgb(80, 80, 80); fill: none;" marker-end="" d="M920,589.5, 1100,549.5"></path><path class="link" style="stroke-width: 0.5px; stroke-opacity: 1; stroke: rgb(80, 80, 80); fill: none;" marker-end="" d="M920,589.5, 1100,589.5"></path><path class="link" style="stroke-width: 0.5px; stroke-opacity: 1; stroke: rgb(80, 80, 80); fill: none;" marker-end="" d="M740,349.5, 920,629.5"></path><path class="link" style="stroke-width: 0.5px; stroke-opacity: 1; stroke: rgb(80, 80, 80); fill: none;" marker-end="" d="M740,389.5, 920,629.5"></path><path class="link" style="stroke-width: 0.5px; stroke-opacity: 1; stroke: rgb(80, 80, 80); fill: none;" marker-end="" d="M740,429.5, 920,629.5"></path><path class="link" style="stroke-width: 0.5px; stroke-opacity: 1; stroke: rgb(80, 80, 80); fill: none;" marker-end="" d="M740,469.5, 920,629.5"></path><path class="link" style="stroke-width: 0.5px; stroke-opacity: 1; stroke: rgb(80, 80, 80); fill: none;" marker-end="" d="M740,509.5, 920,629.5"></path><path class="link" style="stroke-width: 0.5px; stroke-opacity: 1; stroke: rgb(80, 80, 80); fill: none;" marker-end="" d="M740,549.5, 920,629.5"></path><path class="link" style="stroke-width: 0.5px; stroke-opacity: 1; stroke: rgb(80, 80, 80); fill: none;" marker-end="" d="M740,589.5, 920,629.5"></path><path class="link" style="stroke-width: 0.5px; stroke-opacity: 1; stroke: rgb(80, 80, 80); fill: none;" marker-end="" d="M740,629.5, 920,629.5"></path><path class="link" style="stroke-width: 0.5px; stroke-opacity: 1; stroke: rgb(80, 80, 80); fill: none;" marker-end="" d="M920,629.5, 1100,349.5"></path><path class="link" style="stroke-width: 0.5px; stroke-opacity: 1; stroke: rgb(80, 80, 80); fill: none;" marker-end="" d="M920,629.5, 1100,389.5"></path><path class="link" style="stroke-width: 0.5px; stroke-opacity: 1; stroke: rgb(80, 80, 80); fill: none;" marker-end="" d="M920,629.5, 1100,429.5"></path><path class="link" style="stroke-width: 0.5px; stroke-opacity: 1; stroke: rgb(80, 80, 80); fill: none;" marker-end="" d="M920,629.5, 1100,469.5"></path><path class="link" style="stroke-width: 0.5px; stroke-opacity: 1; stroke: rgb(80, 80, 80); fill: none;" marker-end="" d="M920,629.5, 1100,509.5"></path><path class="link" style="stroke-width: 0.5px; stroke-opacity: 1; stroke: rgb(80, 80, 80); fill: none;" marker-end="" d="M920,629.5, 1100,549.5"></path><path class="link" style="stroke-width: 0.5px; stroke-opacity: 1; stroke: rgb(80, 80, 80); fill: none;" marker-end="" d="M920,629.5, 1100,589.5"></path><path class="link" style="stroke-width: 0.5px; stroke-opacity: 1; stroke: rgb(80, 80, 80); fill: none;" marker-end="" d="M920,349.5, 1100,629.5"></path><path class="link" style="stroke-width: 0.5px; stroke-opacity: 1; stroke: rgb(80, 80, 80); fill: none;" marker-end="" d="M920,389.5, 1100,629.5"></path><path class="link" style="stroke-width: 0.5px; stroke-opacity: 1; stroke: rgb(80, 80, 80); fill: none;" marker-end="" d="M920,429.5, 1100,629.5"></path><path class="link" style="stroke-width: 0.5px; stroke-opacity: 1; stroke: rgb(80, 80, 80); fill: none;" marker-end="" d="M920,469.5, 1100,629.5"></path><path class="link" style="stroke-width: 0.5px; stroke-opacity: 1; stroke: rgb(80, 80, 80); fill: none;" marker-end="" d="M920,509.5, 1100,629.5"></path><path class="link" style="stroke-width: 0.5px; stroke-opacity: 1; stroke: rgb(80, 80, 80); fill: none;" marker-end="" d="M920,549.5, 1100,629.5"></path><path class="link" style="stroke-width: 0.5px; stroke-opacity: 1; stroke: rgb(80, 80, 80); fill: none;" marker-end="" d="M920,589.5, 1100,629.5"></path><path class="link" style="stroke-width: 0.5px; stroke-opacity: 1; stroke: rgb(80, 80, 80); fill: none;" marker-end="" d="M920,629.5, 1100,629.5"></path><path class="link" style="stroke-width: 0.5px; stroke-opacity: 1; stroke: rgb(80, 80, 80); fill: none;" marker-end="" d="M1100,629.5, 1280,429.5"></path><path class="link" style="stroke-width: 0.5px; stroke-opacity: 1; stroke: rgb(80, 80, 80); fill: none;" marker-end="" d="M1100,349.5, 1280,469.5"></path><path class="link" style="stroke-width: 0.5px; stroke-opacity: 1; stroke: rgb(80, 80, 80); fill: none;" marker-end="" d="M1100,389.5, 1280,469.5"></path><path class="link" style="stroke-width: 0.5px; stroke-opacity: 1; stroke: rgb(80, 80, 80); fill: none;" marker-end="" d="M1100,429.5, 1280,469.5"></path><path class="link" style="stroke-width: 0.5px; stroke-opacity: 1; stroke: rgb(80, 80, 80); fill: none;" marker-end="" d="M1100,469.5, 1280,469.5"></path><path class="link" style="stroke-width: 0.5px; stroke-opacity: 1; stroke: rgb(80, 80, 80); fill: none;" marker-end="" d="M1100,509.5, 1280,469.5"></path><path class="link" style="stroke-width: 0.5px; stroke-opacity: 1; stroke: rgb(80, 80, 80); fill: none;" marker-end="" d="M1100,549.5, 1280,469.5"></path><path class="link" style="stroke-width: 0.5px; stroke-opacity: 1; stroke: rgb(80, 80, 80); fill: none;" marker-end="" d="M1100,589.5, 1280,469.5"></path><path class="link" style="stroke-width: 0.5px; stroke-opacity: 1; stroke: rgb(80, 80, 80); fill: none;" marker-end="" d="M1100,629.5, 1280,469.5"></path><path class="link" style="stroke-width: 0.5px; stroke-opacity: 1; stroke: rgb(80, 80, 80); fill: none;" marker-end="" d="M1100,349.5, 1280,509.5"></path><path class="link" style="stroke-width: 0.5px; stroke-opacity: 1; stroke: rgb(80, 80, 80); fill: none;" marker-end="" d="M1100,389.5, 1280,509.5"></path><path class="link" style="stroke-width: 0.5px; stroke-opacity: 1; stroke: rgb(80, 80, 80); fill: none;" marker-end="" d="M1100,429.5, 1280,509.5"></path><path class="link" style="stroke-width: 0.5px; stroke-opacity: 1; stroke: rgb(80, 80, 80); fill: none;" marker-end="" d="M1100,469.5, 1280,509.5"></path><path class="link" style="stroke-width: 0.5px; stroke-opacity: 1; stroke: rgb(80, 80, 80); fill: none;" marker-end="" d="M1100,509.5, 1280,509.5"></path><path class="link" style="stroke-width: 0.5px; stroke-opacity: 1; stroke: rgb(80, 80, 80); fill: none;" marker-end="" d="M1100,549.5, 1280,509.5"></path><path class="link" style="stroke-width: 0.5px; stroke-opacity: 1; stroke: rgb(80, 80, 80); fill: none;" marker-end="" d="M1100,589.5, 1280,509.5"></path><path class="link" style="stroke-width: 0.5px; stroke-opacity: 1; stroke: rgb(80, 80, 80); fill: none;" marker-end="" d="M1100,629.5, 1280,509.5"></path><path class="link" style="stroke-width: 0.5px; stroke-opacity: 1; stroke: rgb(80, 80, 80); fill: none;" marker-end="" d="M1100,349.5, 1280,549.5"></path><path class="link" style="stroke-width: 0.5px; stroke-opacity: 1; stroke: rgb(80, 80, 80); fill: none;" marker-end="" d="M1100,389.5, 1280,549.5"></path><path class="link" style="stroke-width: 0.5px; stroke-opacity: 1; stroke: rgb(80, 80, 80); fill: none;" marker-end="" d="M1100,429.5, 1280,549.5"></path><path class="link" style="stroke-width: 0.5px; stroke-opacity: 1; stroke: rgb(80, 80, 80); fill: none;" marker-end="" d="M1100,469.5, 1280,549.5"></path><path class="link" style="stroke-width: 0.5px; stroke-opacity: 1; stroke: rgb(80, 80, 80); fill: none;" marker-end="" d="M1100,509.5, 1280,549.5"></path><path class="link" style="stroke-width: 0.5px; stroke-opacity: 1; stroke: rgb(80, 80, 80); fill: none;" marker-end="" d="M1100,549.5, 1280,549.5"></path><path class="link" style="stroke-width: 0.5px; stroke-opacity: 1; stroke: rgb(80, 80, 80); fill: none;" marker-end="" d="M1100,589.5, 1280,549.5"></path><path class="link" style="stroke-width: 0.5px; stroke-opacity: 1; stroke: rgb(80, 80, 80); fill: none;" marker-end="" d="M1100,629.5, 1280,549.5"></path><path class="link" style="stroke-width: 0.5px; stroke-opacity: 1; stroke: rgb(80, 80, 80); fill: none;" marker-end="" d="M1280,429.5, 1460,489.5"></path><path class="link" style="stroke-width: 0.5px; stroke-opacity: 1; stroke: rgb(80, 80, 80); fill: none;" marker-end="" d="M1280,469.5, 1460,489.5"></path><path class="link" style="stroke-width: 0.5px; stroke-opacity: 1; stroke: rgb(80, 80, 80); fill: none;" marker-end="" d="M1280,509.5, 1460,489.5"></path><path class="link" style="stroke-width: 0.5px; stroke-opacity: 1; stroke: rgb(80, 80, 80); fill: none;" marker-end="" d="M1280,549.5, 1460,489.5"></path><circle r="10" class="node" id="0_0" style="fill: rgb(255, 255, 255); stroke: rgb(51, 51, 51);" cx="560" cy="409.5"></circle><circle r="10" class="node" id="0_1" style="fill: rgb(255, 255, 255); stroke: rgb(51, 51, 51);" cx="560" cy="449.5"></circle><circle r="10" class="node" id="0_2" style="fill: rgb(255, 255, 255); stroke: rgb(51, 51, 51);" cx="560" cy="489.5"></circle><circle r="10" class="node" id="0_3" style="fill: rgb(255, 255, 255); stroke: rgb(51, 51, 51);" cx="560" cy="529.5"></circle><circle r="10" class="node" id="0_4" style="fill: rgb(255, 255, 255); stroke: rgb(51, 51, 51);" cx="560" cy="569.5"></circle><circle r="10" class="node" id="1_0" style="fill: rgb(255, 255, 255); stroke: rgb(51, 51, 51);" cx="740" cy="349.5"></circle><circle r="10" class="node" id="1_1" style="fill: rgb(255, 255, 255); stroke: rgb(51, 51, 51);" cx="740" cy="389.5"></circle><circle r="10" class="node" id="1_2" style="fill: rgb(255, 255, 255); stroke: rgb(51, 51, 51);" cx="740" cy="429.5"></circle><circle r="10" class="node" id="1_3" style="fill: rgb(255, 255, 255); stroke: rgb(51, 51, 51);" cx="740" cy="469.5"></circle><circle r="10" class="node" id="1_4" style="fill: rgb(255, 255, 255); stroke: rgb(51, 51, 51);" cx="740" cy="509.5"></circle><circle r="10" class="node" id="1_5" style="fill: rgb(255, 255, 255); stroke: rgb(51, 51, 51);" cx="740" cy="549.5"></circle><circle r="10" class="node" id="1_6" style="fill: rgb(255, 255, 255); stroke: rgb(51, 51, 51);" cx="740" cy="589.5"></circle><circle r="10" class="node" id="1_7" style="fill: rgb(255, 255, 255); stroke: rgb(51, 51, 51);" cx="740" cy="629.5"></circle><circle r="10" class="node" id="2_0" style="fill: rgb(255, 255, 255); stroke: rgb(51, 51, 51);" cx="920" cy="349.5"></circle><circle r="10" class="node" id="2_1" style="fill: rgb(255, 255, 255); stroke: rgb(51, 51, 51);" cx="920" cy="389.5"></circle><circle r="10" class="node" id="2_2" style="fill: rgb(255, 255, 255); stroke: rgb(51, 51, 51);" cx="920" cy="429.5"></circle><circle r="10" class="node" id="2_3" style="fill: rgb(255, 255, 255); stroke: rgb(51, 51, 51);" cx="920" cy="469.5"></circle><circle r="10" class="node" id="2_4" style="fill: rgb(255, 255, 255); stroke: rgb(51, 51, 51);" cx="920" cy="509.5"></circle><circle r="10" class="node" id="2_5" style="fill: rgb(255, 255, 255); stroke: rgb(51, 51, 51);" cx="920" cy="549.5"></circle><circle r="10" class="node" id="2_6" style="fill: rgb(255, 255, 255); stroke: rgb(51, 51, 51);" cx="920" cy="589.5"></circle><circle r="10" class="node" id="2_7" style="fill: rgb(255, 255, 255); stroke: rgb(51, 51, 51);" cx="920" cy="629.5"></circle><circle r="10" class="node" id="3_0" style="fill: rgb(255, 255, 255); stroke: rgb(51, 51, 51);" cx="1100" cy="349.5"></circle><text class="text" dy=".35em" style="font-size: 12px;" x="525" y="669.5">Input Layer ∈ ℝ⁵</text><text class="text" dy=".35em" style="font-size: 12px;" x="705" y="669.5">Hidden Layer ∈ ℝ⁸</text><text class="text" dy=".35em" style="font-size: 12px;" x="885" y="669.5">Hidden Layer ∈ ℝ⁸</text><text class="text" dy=".35em" style="font-size: 12px;" x="1065" y="669.5">Hidden Layer ∈ ℝ⁸</text><circle r="10" class="node" id="3_1" style="fill: rgb(255, 255, 255); stroke: rgb(51, 51, 51);" cx="1100" cy="389.5"></circle><circle r="10" class="node" id="3_2" style="fill: rgb(255, 255, 255); stroke: rgb(51, 51, 51);" cx="1100" cy="429.5"></circle><circle r="10" class="node" id="3_3" style="fill: rgb(255, 255, 255); stroke: rgb(51, 51, 51);" cx="1100" cy="469.5"></circle><circle r="10" class="node" id="3_4" style="fill: rgb(255, 255, 255); stroke: rgb(51, 51, 51);" cx="1100" cy="509.5"></circle><circle r="10" class="node" id="3_5" style="fill: rgb(255, 255, 255); stroke: rgb(51, 51, 51);" cx="1100" cy="549.5"></circle><circle r="10" class="node" id="3_6" style="fill: rgb(255, 255, 255); stroke: rgb(51, 51, 51);" cx="1100" cy="589.5"></circle><circle r="10" class="node" id="3_7" style="fill: rgb(255, 255, 255); stroke: rgb(51, 51, 51);" cx="1100" cy="629.5"></circle><circle r="10" class="node" id="4_0" style="fill: rgb(255, 255, 255); stroke: rgb(51, 51, 51);" cx="1280" cy="429.5"></circle><text class="text" dy=".35em" style="font-size: 12px;" x="1245" y="669.5">Hidden Layer ∈ ℝ⁴</text><circle r="10" class="node" id="4_1" style="fill: rgb(255, 255, 255); stroke: rgb(51, 51, 51);" cx="1280" cy="469.5"></circle><circle r="10" class="node" id="4_2" style="fill: rgb(255, 255, 255); stroke: rgb(51, 51, 51);" cx="1280" cy="509.5"></circle><circle r="10" class="node" id="4_3" style="fill: rgb(255, 255, 255); stroke: rgb(51, 51, 51);" cx="1280" cy="549.5"></circle><text class="text" dy=".35em" style="font-size: 12px;" x="1425" y="669.5">Output Layer ∈ ℝ¹</text><circle r="10" class="node" id="5_0" style="fill: rgb(255, 255, 255); stroke: rgb(51, 51, 51);" cx="1460" cy="489.5"></circle></g><defs><marker id="arrow" viewBox="0 -5 10 10" markerWidth="7" markerHeight="7" orient="auto" refX="40"><path d="M0,-5L10,0L0,5" style="stroke: rgb(80, 80, 80); fill: none;"></path></marker></defs></svg>