<?xml version="1.0" encoding="UTF-8"?>
<svg xmlns="http://www.w3.org/2000/svg" xmlns:xlink="http://www.w3.org/1999/xlink" width="854" height="480" viewBox="0 0 854 480">
<defs>
<g>
<g id="glyph-0-0">
<path d="M 3.8125 -9.519531 C 5.058594 -9.519531 5.964844 -9.273438 6.53125 -8.785156 C 7.101562 -8.296875 7.386719 -7.609375 7.386719 -6.71875 C 7.386719 -6.328125 7.320312 -5.953125 7.191406 -5.59375 C 7.0625 -5.234375 6.851562 -4.910156 6.558594 -4.625 C 6.265625 -4.339844 5.875 -4.117188 5.386719 -3.953125 C 4.898438 -3.789062 4.296875 -3.707031 3.585938 -3.707031 L 2.492188 -3.707031 L 2.492188 0 L 1.292969 0 L 1.292969 -9.519531 Z M 3.707031 -8.492188 L 2.492188 -8.492188 L 2.492188 -4.734375 L 3.453125 -4.734375 C 4.058594 -4.734375 4.558594 -4.796875 4.960938 -4.925781 C 5.359375 -5.054688 5.65625 -5.261719 5.851562 -5.546875 C 6.046875 -5.832031 6.148438 -6.203125 6.148438 -6.667969 C 6.148438 -7.28125 5.949219 -7.738281 5.558594 -8.039062 C 5.167969 -8.339844 4.550781 -8.492188 3.707031 -8.492188 Z "/>
</g>
<g id="glyph-0-1">
<path d="M 7.347656 -3.585938 C 7.347656 -2.992188 7.269531 -2.464844 7.113281 -2.007812 C 6.957031 -1.550781 6.734375 -1.160156 6.445312 -0.839844 C 6.15625 -0.519531 5.804688 -0.277344 5.394531 -0.113281 C 4.980469 0.0507812 4.519531 0.132812 4.011719 0.132812 C 3.542969 0.132812 3.105469 0.0507812 2.707031 -0.113281 C 2.308594 -0.277344 1.960938 -0.519531 1.667969 -0.839844 C 1.375 -1.160156 1.144531 -1.550781 0.980469 -2.007812 C 0.816406 -2.464844 0.734375 -2.992188 0.734375 -3.585938 C 0.734375 -4.378906 0.867188 -5.046875 1.132812 -5.59375 C 1.398438 -6.140625 1.78125 -6.558594 2.28125 -6.847656 C 2.777344 -7.136719 3.367188 -7.28125 4.054688 -7.28125 C 4.703125 -7.28125 5.273438 -7.136719 5.765625 -6.847656 C 6.257812 -6.558594 6.648438 -6.140625 6.925781 -5.59375 C 7.207031 -5.046875 7.347656 -4.378906 7.347656 -3.585938 Z M 1.945312 -3.585938 C 1.945312 -3.027344 2.019531 -2.539062 2.167969 -2.125 C 2.3125 -1.710938 2.542969 -1.394531 2.851562 -1.171875 C 3.164062 -0.949219 3.558594 -0.839844 4.039062 -0.839844 C 4.519531 -0.839844 4.914062 -0.949219 5.226562 -1.171875 C 5.539062 -1.394531 5.765625 -1.714844 5.914062 -2.125 C 6.058594 -2.539062 6.132812 -3.027344 6.132812 -3.585938 C 6.132812 -4.15625 6.058594 -4.640625 5.90625 -5.039062 C 5.753906 -5.441406 5.527344 -5.75 5.21875 -5.964844 C 4.914062 -6.183594 4.515625 -6.292969 4.027344 -6.292969 C 3.296875 -6.292969 2.769531 -6.054688 2.441406 -5.574219 C 2.113281 -5.09375 1.945312 -4.429688 1.945312 -3.585938 Z "/>
</g>
<g id="glyph-0-2">
<path d="M 2.304688 0 L 1.132812 0 L 1.132812 -10.132812 L 2.304688 -10.132812 Z "/>
</g>
<g id="glyph-0-3">
<path d="M 2.304688 -7.148438 L 2.304688 0 L 1.132812 0 L 1.132812 -7.148438 Z M 1.734375 -9.828125 C 1.910156 -9.828125 2.070312 -9.765625 2.207031 -9.644531 C 2.34375 -9.527344 2.414062 -9.335938 2.414062 -9.078125 C 2.414062 -8.832031 2.34375 -8.644531 2.207031 -8.519531 C 2.070312 -8.394531 1.910156 -8.332031 1.734375 -8.332031 C 1.539062 -8.332031 1.375 -8.394531 1.238281 -8.519531 C 1.105469 -8.644531 1.039062 -8.832031 1.039062 -9.078125 C 1.039062 -9.335938 1.105469 -9.527344 1.238281 -9.644531 C 1.371094 -9.765625 1.539062 -9.828125 1.734375 -9.828125 Z "/>
</g>
<g id="glyph-0-4">
<path d="M 4.574219 -7.28125 C 5.425781 -7.28125 6.070312 -7.074219 6.507812 -6.660156 C 6.941406 -6.246094 7.160156 -5.578125 7.160156 -4.652344 L 7.160156 0 L 6 0 L 6 -4.574219 C 6 -5.152344 5.871094 -5.582031 5.613281 -5.867188 C 5.355469 -6.152344 4.949219 -6.292969 4.398438 -6.292969 C 3.609375 -6.292969 3.0625 -6.070312 2.761719 -5.625 C 2.457031 -5.179688 2.304688 -4.542969 2.304688 -3.707031 L 2.304688 0 L 1.132812 0 L 1.132812 -7.148438 L 2.078125 -7.148438 L 2.253906 -6.171875 L 2.320312 -6.171875 C 2.480469 -6.421875 2.675781 -6.628906 2.914062 -6.792969 C 3.148438 -6.957031 3.410156 -7.078125 3.691406 -7.160156 C 3.976562 -7.238281 4.269531 -7.28125 4.574219 -7.28125 Z "/>
</g>
<g id="glyph-0-5">
<path d="M 3.667969 -7.28125 C 4.136719 -7.28125 4.5625 -7.191406 4.941406 -7.011719 C 5.316406 -6.835938 5.640625 -6.5625 5.90625 -6.199219 L 5.972656 -6.199219 L 6.132812 -7.148438 L 7.066406 -7.148438 L 7.066406 0.121094 C 7.066406 0.796875 6.949219 1.363281 6.71875 1.820312 C 6.488281 2.277344 6.136719 2.621094 5.667969 2.851562 C 5.195312 3.082031 4.59375 3.199219 3.867188 3.199219 C 3.351562 3.199219 2.878906 3.164062 2.445312 3.085938 C 2.015625 3.011719 1.632812 2.898438 1.292969 2.746094 L 1.292969 1.667969 C 1.632812 1.84375 2.027344 1.980469 2.480469 2.078125 C 2.933594 2.175781 3.417969 2.226562 3.933594 2.226562 C 4.546875 2.226562 5.027344 2.046875 5.378906 1.6875 C 5.730469 1.328125 5.90625 0.835938 5.90625 0.214844 L 5.90625 -0.0664062 C 5.90625 -0.171875 5.910156 -0.328125 5.917969 -0.527344 C 5.929688 -0.726562 5.9375 -0.867188 5.945312 -0.945312 L 5.894531 -0.945312 C 5.644531 -0.582031 5.335938 -0.3125 4.964844 -0.132812 C 4.597656 0.0429688 4.167969 0.132812 3.679688 0.132812 C 2.753906 0.132812 2.035156 -0.191406 1.511719 -0.839844 C 0.992188 -1.488281 0.734375 -2.394531 0.734375 -3.558594 C 0.734375 -4.695312 0.992188 -5.601562 1.511719 -6.273438 C 2.03125 -6.945312 2.75 -7.28125 3.667969 -7.28125 Z M 3.828125 -6.292969 C 3.425781 -6.292969 3.085938 -6.1875 2.804688 -5.972656 C 2.527344 -5.757812 2.3125 -5.449219 2.167969 -5.039062 C 2.019531 -4.628906 1.945312 -4.132812 1.945312 -3.546875 C 1.945312 -2.667969 2.109375 -1.992188 2.433594 -1.527344 C 2.757812 -1.058594 3.230469 -0.828125 3.851562 -0.828125 C 4.21875 -0.828125 4.527344 -0.875 4.785156 -0.964844 C 5.042969 -1.058594 5.257812 -1.207031 5.425781 -1.40625 C 5.59375 -1.605469 5.71875 -1.863281 5.800781 -2.171875 C 5.878906 -2.484375 5.917969 -2.851562 5.917969 -3.28125 L 5.917969 -3.558594 C 5.917969 -4.207031 5.847656 -4.734375 5.699219 -5.132812 C 5.554688 -5.53125 5.324219 -5.828125 5.011719 -6.011719 C 4.703125 -6.199219 4.304688 -6.292969 3.828125 -6.292969 Z "/>
</g>
</g>
</defs>
<g fill="rgb(34.509804%, 76.862745%, 86.666667%)" fill-opacity="1">
<use xlink:href="#glyph-0-0" x="30" y="34.25293"/>
<use xlink:href="#glyph-0-1" x="38" y="34.25293"/>
<use xlink:href="#glyph-0-1" x="46" y="34.25293"/>
<use xlink:href="#glyph-0-2" x="54" y="34.25293"/>
<use xlink:href="#glyph-0-3" x="57" y="34.25293"/>
<use xlink:href="#glyph-0-4" x="60" y="34.25293"/>
<use xlink:href="#glyph-0-5" x="68" y="34.25293"/>
</g>
</svg>
