<svg xmlns="http://www.w3.org/2000/svg" style="cursor: move;" width="1582" height="1039"><g transform="translate(-1507.754499735202,-984.7878000056371) scale(2.8402147170868823)"><path class="link" style="stroke-width: 0.5px; stroke-opacity: 1; stroke: rgb(80, 80, 80); fill: none;" marker-end="" d="M631,489.5, 811,369.5"></path><path class="link" style="stroke-width: 0.5px; stroke-opacity: 1; stroke: rgb(80, 80, 80); fill: none;" marker-end="" d="M631,529.5, 811,369.5"></path><path class="link" style="stroke-width: 0.5px; stroke-opacity: 1; stroke: rgb(80, 80, 80); fill: none;" marker-end="" d="M811,369.5, 991,509.5"></path><path class="link" style="stroke-width: 0.5px; stroke-opacity: 1; stroke: rgb(80, 80, 80); fill: none;" marker-end="" d="M631,489.5, 811,409.5"></path><path class="link" style="stroke-width: 0.5px; stroke-opacity: 1; stroke: rgb(80, 80, 80); fill: none;" marker-end="" d="M631,529.5, 811,409.5"></path><path class="link" style="stroke-width: 0.5px; stroke-opacity: 1; stroke: rgb(80, 80, 80); fill: none;" marker-end="" d="M811,409.5, 991,509.5"></path><path class="link" style="stroke-width: 0.5px; stroke-opacity: 1; stroke: rgb(80, 80, 80); fill: none;" marker-end="" d="M631,489.5, 811,449.5"></path><path class="link" style="stroke-width: 0.5px; stroke-opacity: 1; stroke: rgb(80, 80, 80); fill: none;" marker-end="" d="M631,529.5, 811,449.5"></path><path class="link" style="stroke-width: 0.5px; stroke-opacity: 1; stroke: rgb(80, 80, 80); fill: none;" marker-end="" d="M811,449.5, 991,509.5"></path><path class="link" style="stroke-width: 0.5px; stroke-opacity: 1; stroke: rgb(80, 80, 80); fill: none;" marker-end="" d="M631,489.5, 811,489.5"></path><path class="link" style="stroke-width: 0.5px; stroke-opacity: 1; stroke: rgb(80, 80, 80); fill: none;" marker-end="" d="M631,529.5, 811,489.5"></path><path class="link" style="stroke-width: 0.5px; stroke-opacity: 1; stroke: rgb(80, 80, 80); fill: none;" marker-end="" d="M811,489.5, 991,509.5"></path><path class="link" style="stroke-width: 0.5px; stroke-opacity: 1; stroke: rgb(80, 80, 80); fill: none;" marker-end="" d="M631,489.5, 811,529.5"></path><path class="link" style="stroke-width: 0.5px; stroke-opacity: 1; stroke: rgb(80, 80, 80); fill: none;" marker-end="" d="M631,529.5, 811,529.5"></path><path class="link" style="stroke-width: 0.5px; stroke-opacity: 1; stroke: rgb(80, 80, 80); fill: none;" marker-end="" d="M811,529.5, 991,509.5"></path><path class="link" style="stroke-width: 0.5px; stroke-opacity: 1; stroke: rgb(80, 80, 80); fill: none;" marker-end="" d="M631,489.5, 811,569.5"></path><path class="link" style="stroke-width: 0.5px; stroke-opacity: 1; stroke: rgb(80, 80, 80); fill: none;" marker-end="" d="M631,529.5, 811,569.5"></path><path class="link" style="stroke-width: 0.5px; stroke-opacity: 1; stroke: rgb(80, 80, 80); fill: none;" marker-end="" d="M811,569.5, 991,509.5"></path><path class="link" style="stroke-width: 0.5px; stroke-opacity: 1; stroke: rgb(80, 80, 80); fill: none;" marker-end="" d="M631,489.5, 811,609.5"></path><path class="link" style="stroke-width: 0.5px; stroke-opacity: 1; stroke: rgb(80, 80, 80); fill: none;" marker-end="" d="M631,529.5, 811,609.5"></path><path class="link" style="stroke-width: 0.5px; stroke-opacity: 1; stroke: rgb(80, 80, 80); fill: none;" marker-end="" d="M811,609.5, 991,509.5"></path><path class="link" style="stroke-width: 0.5px; stroke-opacity: 1; stroke: rgb(80, 80, 80); fill: none;" marker-end="" d="M631,489.5, 811,649.5"></path><path class="link" style="stroke-width: 0.5px; stroke-opacity: 1; stroke: rgb(80, 80, 80); fill: none;" marker-end="" d="M631,529.5, 811,649.5"></path><path class="link" style="stroke-width: 0.5px; stroke-opacity: 1; stroke: rgb(80, 80, 80); fill: none;" marker-end="" d="M811,649.5, 991,509.5"></path><circle r="10" class="node" id="0_0" style="fill: rgb(255, 255, 255); stroke: rgb(51, 51, 51);" cx="631" cy="489.5"></circle><circle r="10" class="node" id="0_1" style="fill: rgb(255, 255, 255); stroke: rgb(51, 51, 51);" cx="631" cy="529.5"></circle><circle r="10" class="node" id="1_0" style="fill: rgb(255, 255, 255); stroke: rgb(51, 51, 51);" cx="811" cy="369.5"></circle><text class="text" dy=".35em" style="font-size: 12px;" x="596" y="689.5">Input Layer ∈ ℝ²</text><text class="text" dy=".35em" style="font-size: 12px;" x="776" y="689.5">Hidden Layer ∈ ℝ⁸</text><circle r="10" class="node" id="1_1" style="fill: rgb(255, 255, 255); stroke: rgb(51, 51, 51);" cx="811" cy="409.5"></circle><circle r="10" class="node" id="1_2" style="fill: rgb(255, 255, 255); stroke: rgb(51, 51, 51);" cx="811" cy="449.5"></circle><circle r="10" class="node" id="1_3" style="fill: rgb(255, 255, 255); stroke: rgb(51, 51, 51);" cx="811" cy="489.5"></circle><circle r="10" class="node" id="1_4" style="fill: rgb(255, 255, 255); stroke: rgb(51, 51, 51);" cx="811" cy="529.5"></circle><circle r="10" class="node" id="1_5" style="fill: rgb(255, 255, 255); stroke: rgb(51, 51, 51);" cx="811" cy="569.5"></circle><circle r="10" class="node" id="1_6" style="fill: rgb(255, 255, 255); stroke: rgb(51, 51, 51);" cx="811" cy="609.5"></circle><circle r="10" class="node" id="1_7" style="fill: rgb(255, 255, 255); stroke: rgb(51, 51, 51);" cx="811" cy="649.5"></circle><circle r="10" class="node" id="2_0" style="fill: rgb(255, 255, 255); stroke: rgb(51, 51, 51);" cx="991" cy="509.5"></circle><text class="text" dy=".35em" style="font-size: 12px;" x="956" y="689.5">Output Layer ∈ ℝ¹</text></g><defs><marker id="arrow" viewBox="0 -5 10 10" markerWidth="7" markerHeight="7" orient="auto" refX="40"><path d="M0,-5L10,0L0,5" style="stroke: rgb(80, 80, 80); fill: none;"></path></marker></defs></svg>